<?xml version="1.0" standalone="no"?><!DOCTYPE svg PUBLIC "-//W3C//DTD SVG 1.1//EN" "http://www.w3.org/Graphics/SVG/1.1/DTD/svg11.dtd"><svg t="1615526644387" class="icon" viewBox="0 0 1024 1024" version="1.1" xmlns="http://www.w3.org/2000/svg" p-id="800" width="13" height="13" xmlns:xlink="http://www.w3.org/1999/xlink"><defs><style type="text/css"></style></defs><path d="M849.8 922.4L534.5 607.1 219.2 922.4c-26.1 26.1-68.5 26.1-94.6 0-26.1-26.1-26.1-68.5 0-94.6l315.3-315.3-315.3-315.3c-26.1-26.1-26.1-68.5 0-94.6s68.5-26.1 94.6 0l315.3 315.3 315.3-315.3c26.1-26.1 68.5-26.1 94.6 0 26.1 26.1 26.1 68.5 0 94.6L629.1 512.5l315.3 315.3c26.1 26.1 26.1 68.5 0 94.6-26.1 26.1-68.5 26.1-94.6 0z" p-id="801" fill="#1296db"></path></svg>