<?xml version="1.0" standalone="no"?><!DOCTYPE svg PUBLIC "-//W3C//DTD SVG 1.1//EN" "http://www.w3.org/Graphics/SVG/1.1/DTD/svg11.dtd"><svg t="1615536172688" class="icon" viewBox="0 0 1024 1024" version="1.1" xmlns="http://www.w3.org/2000/svg" p-id="3875" data-spm-anchor-id="a313x.7781069.0.i2" width="50" height="50" xmlns:xlink="http://www.w3.org/1999/xlink"><defs><style type="text/css"></style></defs><path d="M754.88 739.2c-105.728 0-185.344-141.248-185.344-326.976s79.68-326.912 185.344-326.912c105.664 0 183.808 141.184 183.808 326.912 0 185.728-79.68 326.912-183.808 326.912z m0-561.792c-38.272 0-93.44 92.096-93.44 234.88 0 142.72 55.104 234.752 93.44 234.752 38.272 0 91.904-92.096 91.904-234.816s-55.168-234.816-91.904-234.816z" fill="#ea9518" p-id="3876"></path><path d="M754.88 505.856c25.344 0 45.952-41.92 45.952-93.632s-20.608-93.632-45.952-93.632c-25.408 0-45.952 41.92-45.952 93.632s20.544 93.632 45.952 93.632z" fill="#ea9518" p-id="3877"></path><path d="M754.88 739.136c-3.072 0-6.144 0-9.216-1.536L211.2 620.992C113.088 600.96 42.688 512 42.688 412.16s70.4-187.264 168.448-208.704l534.528-116.672c24.512-6.144 49.024 10.752 55.168 35.328 6.08 24.512-10.752 49.088-35.2 55.232L231.04 294.08c-56.64 10.688-96.448 61.376-96.448 118.144 0 56.768 39.808 107.456 94.912 119.68l534.528 116.672a48 48 0 0 1 35.2 55.296 44.416 44.416 0 0 1-44.352 35.264z" fill="#ea9518" p-id="3878"></path><path d="M480.704 938.688c-35.2 0-68.928-18.432-87.296-49.152L220.352 610.24a46.72 46.72 0 0 1 1.536-50.688c10.688-15.36 29.056-21.44 47.424-18.368l156.224 35.264a50.24 50.24 0 0 1 29.12 19.968l113.344 182.656c19.904 32.192 21.44 72.128 3.072 104.32-18.368 32.256-53.632 55.296-90.368 55.296z m-124.032-282.432l113.28 184.192c1.536 3.072 6.144 4.608 9.216 4.608 6.144 0 7.68-3.072 9.216-6.144 1.536-3.072 3.072-6.144 0-10.752l-104.192-165.76-27.52-6.144z" fill="#ea9518" p-id="3879"></path></svg>