<?xml version="1.0" standalone="no"?><!DOCTYPE svg PUBLIC "-//W3C//DTD SVG 1.1//EN" "http://www.w3.org/Graphics/SVG/1.1/DTD/svg11.dtd"><svg t="1615637612164" class="icon" viewBox="0 0 1024 1024" version="1.1" xmlns="http://www.w3.org/2000/svg" p-id="8477" xmlns:xlink="http://www.w3.org/1999/xlink" width="45" height="45"><defs><style type="text/css"></style></defs><path d="M874.666667 249.362963h-725.333334c-11.757037 0-21.333333-9.576296-21.333333-21.333333s9.576296-21.333333 21.333333-21.333334h725.333334c11.757037 0 21.333333 9.576296 21.333333 21.333334S886.423704 249.362963 874.666667 249.362963zM225.185185 609.659259c-5.499259 0-10.903704-2.085926-15.075555-6.257778l-75.851852-75.851851c-8.343704-8.343704-8.343704-21.807407 0-30.151111l0.094815-0.094815 75.757037-75.757037c8.343704-8.343704 21.807407-8.343704 30.151111 0s8.343704 21.807407 0 30.151111l-60.776297 60.776296 60.776297 60.776296c8.343704 8.343704 8.343704 21.807407 0 30.151111-4.171852 4.171852-9.576296 6.257778-15.075556 6.257778zM874.666667 533.807407h-493.037037c-11.757037 0-21.333333-9.576296-21.333334-21.333333s9.576296-21.333333 21.333334-21.333333h493.037037c11.757037 0 21.333333 9.576296 21.333333 21.333333S886.423704 533.807407 874.666667 533.807407z" p-id="8478" fill="#1296db"></path><path d="M874.666667 818.251852h-725.333334c-11.757037 0-21.333333-9.576296-21.333333-21.333333s9.576296-21.333333 21.333333-21.333334h725.333334c11.757037 0 21.333333 9.576296 21.333333 21.333334S886.423704 818.251852 874.666667 818.251852z" p-id="8479" fill="#1296db"></path></svg>