<?xml version="1.0" standalone="no"?><!DOCTYPE svg PUBLIC "-//W3C//DTD SVG 1.1//EN" "http://www.w3.org/Graphics/SVG/1.1/DTD/svg11.dtd"><svg t="1615632941547" class="icon" viewBox="0 0 1024 1024" version="1.1" xmlns="http://www.w3.org/2000/svg" p-id="4408" xmlns:xlink="http://www.w3.org/1999/xlink" width="45" height="45"><defs><style type="text/css"></style></defs><path d="M512 704c11.7 0 21.3-9.6 21.3-21.3V531.4C593.8 521.2 640 468.7 640 405.3c0-70.7-57.3-128-128-128s-128 57.3-128 128c0 63.4 46.2 115.9 106.7 126.1v151.3c0 11.7 9.6 21.3 21.3 21.3z m-85.3-298.7c0-47.1 38.2-85.3 85.3-85.3s85.3 38.2 85.3 85.3c0 47.1-38.2 85.3-85.3 85.3s-85.3-38.1-85.3-85.3z" fill="#1296db" p-id="4409"></path><path d="M896 448c-11.8 0-21.3 9.6-21.3 21.3v97.8c0.9 175.6-290 319.3-362.7 347.8-72.7-28.4-363.6-172.2-362.7-348V193.2c175.6-12.8 238.2-35.8 362.5-86.5H512.1c124.3 50.7 187 73.7 362.6 86.5v105.5c0 11.8 9.6 21.3 21.3 21.3 11.8 0 21.3-9.6 21.3-21.3V173.3c0-11.3-8.9-20.5-20.1-21.3-188.6-12.4-247-35.1-369-84.8C523 65 517.5 64 512 64s-11 1-16.2 3.1c-122 49.7-180.4 72.4-369 84.8-11.2 0.7-20.1 10-20.1 21.3v393.7C105.5 797.8 503.6 960 511.9 960c0.1 0 0.1 0 0.1-0.1 0 0 0 0.1 0.1 0.1 8.3 0 406.4-162.2 405.2-393.1v-97.6c0-11.7-9.5-21.3-21.3-21.3z" fill="#1296db" p-id="4410"></path></svg>