<?xml version="1.0" standalone="no"?><!DOCTYPE svg PUBLIC "-//W3C//DTD SVG 1.1//EN" "http://www.w3.org/Graphics/SVG/1.1/DTD/svg11.dtd"><svg t="1615603760983" class="icon" viewBox="0 0 1024 1024" version="1.1" xmlns="http://www.w3.org/2000/svg" p-id="15774" id="mx_n_1615603760983" data-spm-anchor-id="a313x.7781069.0.i4" xmlns:xlink="http://www.w3.org/1999/xlink" width="50" height="50"><defs><style type="text/css"></style></defs><path d="M932.987763 96 720.625878 96C670.569149 96 600.654688 124.958956 565.258512 160.355132L208.570182 517.043462C173.175902 552.437741 173.175902 610.357549 208.570182 645.753725L474.246275 911.426026C509.640554 946.822202 567.560362 946.822202 602.956538 911.426026L959.641075 554.741488C995.041043 519.345312 1024 449.430851 1024 399.374122L1024 187.012236C1024 136.955506 983.044493 96 932.987763 96L932.987763 96ZM811.638115 399.374122C761.372816 399.374122 720.625878 358.627184 720.625878 308.361884 720.625878 258.096585 761.372816 217.349648 811.638115 217.349648 861.903414 217.349648 902.650352 258.096585 902.650352 308.361884 902.650352 358.627184 861.903414 399.374122 811.638115 399.374122L811.638115 399.374122ZM74.653261 602.847142 399.242714 927.436595C364.862842 945.60112 321.065098 940.273114 292.221804 911.426026L26.54571 645.753725C-8.84857 610.357549-8.84857 552.437741 26.54571 517.043462L383.234038 160.355132C418.630214 124.958956 488.544678 96 538.601408 96L74.653261 559.94625C62.8558 571.745606 62.8558 591.049683 74.653261 602.847142L74.653261 602.847142Z" p-id="15775" data-spm-anchor-id="a313x.7781069.0.i3" class="" fill="#1296db"></path></svg>