<?xml version="1.0" standalone="no"?><!DOCTYPE svg PUBLIC "-//W3C//DTD SVG 1.1//EN" "http://www.w3.org/Graphics/SVG/1.1/DTD/svg11.dtd"><svg t="1615540685659" class="icon" viewBox="0 0 1046 1024" version="1.1" xmlns="http://www.w3.org/2000/svg" p-id="6497" width="51.07421875" height="50" xmlns:xlink="http://www.w3.org/1999/xlink"><defs><style type="text/css"></style></defs><path d="M242.083399 64.995114a374.895564 374.895564 0 0 0 282.633671 132.220847A374.895564 374.895564 0 0 0 805.401744 67.269112L978.229543 256.016892a15.593982 15.593982 0 0 1 0 19.816977L863.552676 413.900709h-32.486962a32.486962 32.486962 0 0 0-32.486962 32.486962V949.930086a15.917982 15.917982 0 0 1-2.597997 9.421989H241.434399a15.917982 15.917982 0 0 1-2.599997-9.421989V449.961667a32.486962 32.486962 0 0 0-29.886965-32.486962l-27.938967-2.273998L65.031604 277.132868c-3.248996-4.222995 0-19.166978 17.54298-38.333956l159.509815-173.803798m0-64.972924a61.399929 61.399929 0 0 0-47.105946 20.466976L35.793638 194.940963c-43.20695 46.779946-44.181949 93.885891-19.491977 123.449857l113.702868 139.041838a61.399929 61.399929 0 0 0 42.55795 22.739974v469.432454A70.170918 70.170918 0 0 0 237.535404 1024H799.229751a70.170918 70.170918 0 0 0 64.972925-74.393914V480.174632h2.923996a60.749929 60.749929 0 0 0 47.105946-22.740974l115.002866-139.042838a82.515904 82.515904 0 0 0-2.599997-104.931878L852.507689 23.088163a61.724928 61.724928 0 0 0-46.129946-20.466976 64.972924 64.972924 0 0 0-49.379943 22.739974 311.546638 311.546638 0 0 1-232.27973 108.180874 311.871638 311.871638 0 0 1-232.27973-110.453872A64.972924 64.972924 0 0 0 241.1104 0.02119z" p-id="6498" data-spm-anchor-id="a313x.7781069.0.i15"></path></svg>