<?xml version="1.0" standalone="no"?><!DOCTYPE svg PUBLIC "-//W3C//DTD SVG 1.1//EN" "http://www.w3.org/Graphics/SVG/1.1/DTD/svg11.dtd"><svg t="1615650750063" class="icon" viewBox="0 0 1024 1024" version="1.1" xmlns="http://www.w3.org/2000/svg" p-id="10735" data-spm-anchor-id="a313x.7781069.0.i17" width="45" height="45" xmlns:xlink="http://www.w3.org/1999/xlink"><defs><style type="text/css"></style></defs><path d="M234.666667 298.666667c-12.8 0-21.333333 8.533333-21.333333 21.333333 0 12.8 8.533333 21.333333 21.333333 21.333333 12.8 0 21.333333-8.533333 21.333333-21.333333C256 307.2 247.466667 298.666667 234.666667 298.666667zM149.333333 298.666667c-12.8 0-21.333333 8.533333-21.333333 21.333333 0 12.8 8.533333 21.333333 21.333333 21.333333 12.8 0 21.333333-8.533333 21.333333-21.333333C170.666667 307.2 162.133333 298.666667 149.333333 298.666667zM704 298.666667 405.333333 298.666667c-12.8 0-21.333333 8.533333-21.333333 21.333333 0 12.8 8.533333 21.333333 21.333333 21.333333l298.666667 0c12.8 0 21.333333-8.533333 21.333333-21.333333C725.333333 307.2 716.8 298.666667 704 298.666667zM896 42.666667 298.666667 42.666667c-46.933333 0-85.333333 38.4-85.333333 85.333333l0 21.333333c0 12.8 8.533333 21.333333 21.333333 21.333333 12.8 0 21.333333-8.533333 21.333333-21.333333L256 128c0-23.466667 19.2-42.666667 42.666667-42.666667l597.333333 0c23.466667 0 42.666667 19.2 42.666667 42.666667l0 597.333333c0 23.466667-19.2 42.666667-42.666667 42.666667l-21.333333 0c-12.8 0-21.333333 8.533333-21.333333 21.333333s8.533333 21.333333 21.333333 21.333333l21.333333 0c46.933333 0 85.333333-38.4 85.333333-85.333333L981.333333 128C981.333333 81.066667 942.933333 42.666667 896 42.666667zM320 298.666667c-12.8 0-21.333333 8.533333-21.333333 21.333333 0 12.8 8.533333 21.333333 21.333333 21.333333 12.8 0 21.333333-8.533333 21.333333-21.333333C341.333333 307.2 332.8 298.666667 320 298.666667zM725.333333 213.333333 128 213.333333c-46.933333 0-85.333333 38.4-85.333333 85.333333l0 597.333333c0 46.933333 38.4 85.333333 85.333333 85.333333l597.333333 0c46.933333 0 85.333333-38.4 85.333333-85.333333L810.666667 298.666667C810.666667 251.733333 772.266667 213.333333 725.333333 213.333333zM768 896c0 23.466667-19.2 42.666667-42.666667 42.666667L128 938.666667c-23.466667 0-42.666667-19.2-42.666667-42.666667L85.333333 426.666667l682.666667 0L768 896zM768 384 85.333333 384l0-85.333333c0-23.466667 19.2-42.666667 42.666667-42.666667l597.333333 0c23.466667 0 42.666667 19.2 42.666667 42.666667L768 384z" p-id="10736" fill="#1296db"></path></svg>